<?xml version="1.0" encoding="UTF-8"?>
<svg version="1.1" xmlns="http://www.w3.org/2000/svg" width="225" height="120">
<path d="M0 0 C1.19625 0.53625 2.3925 1.0725 3.625 1.625 C8.11346768 4.31597828 11.22814282 8.63579933 14 13 C14 13.66 14 14.32 14 15 C14.66 15 15.32 15 16 15 C18.84722083 21.39690558 19.38462317 26.54509028 19.1875 33.5 C19.17396484 34.4178125 19.16042969 35.335625 19.14648438 36.28125 C19.11148097 38.52146803 19.06238869 40.76040594 19 43 C18.34 43 17.68 43 17 43 C16.8453125 44.5778125 16.8453125 44.5778125 16.6875 46.1875 C16.02050668 49.88628113 15.25009992 52.02986811 13 55 C12.34 55 11.68 55 11 55 C10.67 55.99 10.34 56.98 10 58 C9.34 58 8.68 58 8 58 C7.67 58.99 7.34 59.98 7 61 C6.34 61 5.68 61 5 61 C5 61.66 5 62.32 5 63 C4.360625 63.28875 3.72125 63.5775 3.0625 63.875 C0.84793921 64.82823451 0.84793921 64.82823451 0 67 C-0.0689472 68.37342831 -0.08467708 69.75002102 -0.0625 71.125 C-0.0315625 73.043125 -0.0315625 73.043125 0 75 C0.33 73.02 0.66 71.04 1 69 C3.3125 68.6875 3.3125 68.6875 6 69 C7.8125 71.5 7.8125 71.5 9 74 C9.28875 73.360625 9.5775 72.72125 9.875 72.0625 C11 70 11 70 13 69 C14.54023996 68.93049459 16.08334988 68.91547643 17.625 68.9375 C18.44226563 68.94652344 19.25953125 68.95554687 20.1015625 68.96484375 C20.72804687 68.97644531 21.35453125 68.98804687 22 69 C22.042721 70.66611905 22.04063832 72.33382885 22 74 C21 75 21 75 18.4375 75.0625 C17.633125 75.041875 16.82875 75.02125 16 75 C16.33 75.33 16.66 75.66 17 76 C17.886875 75.690625 18.77375 75.38125 19.6875 75.0625 C22.46709155 74.1709329 25.13136375 73.50622993 28 73 C28 74.32 28 75.64 28 77 C25.525 77.99 25.525 77.99 23 79 C23 79.66 23 80.32 23 81 C22.15695313 81.06058594 21.31390625 81.12117188 20.4453125 81.18359375 C19.34960938 81.26738281 18.25390625 81.35117188 17.125 81.4375 C16.03445312 81.51871094 14.94390625 81.59992188 13.8203125 81.68359375 C11.05271029 81.83001703 11.05271029 81.83001703 9 83 C8.57014306 85.32353985 8.57014306 85.32353985 8.4375 88 C8.09618321 92.90381679 8.09618321 92.90381679 7 94 C5.00041636 94.04080783 2.99954746 94.04254356 1 94 C1 91.03 1 88.06 1 85 C2.32 84.34 3.64 83.68 5 83 C4.67 81.68 4.34 80.36 4 79 C3.34 79 2.68 79 2 79 C2 79.66 2 80.32 2 81 C-3.28 81 -8.56 81 -14 81 C-14 84.3 -14 87.6 -14 91 C-15.65 91 -17.3 91 -19 91 C-19 87.7 -19 84.4 -19 81 C-20.13179688 81 -21.26359375 81 -22.4296875 81 C-27.28645833 81 -32.14322917 81 -37 81 C-37.9075 81.185625 -38.815 81.37125 -39.75 81.5625 C-43 82 -43 82 -45.9375 81.5 C-49.51201245 80.91640613 -52.43771189 81.46229613 -56 82 C-57.485 81.505 -57.485 81.505 -59 81 C-59 80.34 -59 79.68 -59 79 C-59.99 79 -60.98 79 -62 79 C-62 79.66 -62 80.32 -62 81 C-63.485 81.495 -63.485 81.495 -65 82 C-65 84.97 -65 87.94 -65 91 C-69 92 -69 92 -71.25 91.0625 C-71.8275 90.711875 -72.405 90.36125 -73 90 C-73 88.02 -73 86.04 -73 84 C-72.34 84 -71.68 84 -71 84 C-71.33 83.34 -71.66 82.68 -72 82 C-72.9075 82.226875 -73.815 82.45375 -74.75 82.6875 C-78 83 -78 83 -80.375 81.875 C-82 80 -82 80 -82.25 77.3125 C-82.1675 76.549375 -82.085 75.78625 -82 75 C-82.99 75.33 -83.98 75.66 -85 76 C-85 77.65 -85 79.3 -85 81 C-84.34 81 -83.68 81 -83 81 C-82.505 85.455 -82.505 85.455 -82 90 C-81.34 90 -80.68 90 -80 90 C-80 91.32 -80 92.64 -80 94 C-82.3125 94.25 -82.3125 94.25 -85 94 C-88.79336603 90.76861412 -89.13684561 85.66435351 -90 81 C-90.20625 79.989375 -90.4125 78.97875 -90.625 77.9375 C-90.74875 77.298125 -90.8725 76.65875 -91 76 C-93.97 76 -96.94 76 -100 76 C-100.0825 76.969375 -100.165 77.93875 -100.25 78.9375 C-100.93941255 83.7059368 -102.91218114 87.69825241 -105 92 C-105.57621094 93.28003906 -105.57621094 93.28003906 -106.1640625 94.5859375 C-108.74310407 100.12671712 -111.32230399 104.0341273 -116 108 C-120.99652074 109.66550691 -126.05772683 109.63421165 -131.0625 108 C-132.0215625 107.505 -132.0215625 107.505 -133 107 C-133 106.34 -133 105.68 -133 105 C-133.99 104.67 -134.98 104.34 -136 104 C-136.6875 101.9375 -136.6875 101.9375 -137 100 C-137.66 100 -138.32 100 -139 100 C-142.83111951 94.89184065 -144.19396389 89.4051523 -143.6875 83.125 C-143 80 -143 80 -142 78 C-141.34 78 -140.68 78 -140 78 C-140 77.34 -140 76.68 -140 76 C-138.85660156 75.86722656 -137.71320313 75.73445313 -136.53515625 75.59765625 C-135.0442438 75.4194969 -133.55335982 75.24109918 -132.0625 75.0625 C-131.30775391 74.97548828 -130.55300781 74.88847656 -129.77539062 74.79882812 C-126.07812542 74.65675901 -126.07812542 74.65675901 -123 73 C-121.58672053 72.84379445 -120.1664541 72.74943827 -118.74609375 72.68359375 C-117.89208984 72.64169922 -117.03808594 72.59980469 -116.15820312 72.55664062 C-115.26037109 72.51732422 -114.36253906 72.47800781 -113.4375 72.4375 C-112.08495117 72.37272461 -112.08495117 72.37272461 -110.70507812 72.30664062 C-108.47021515 72.20021858 -106.23523692 72.09820012 -104 72 C-103.90912109 70.93458984 -103.90912109 70.93458984 -103.81640625 69.84765625 C-103.73261719 68.92855469 -103.64882812 68.00945312 -103.5625 67.0625 C-103.48128906 66.14597656 -103.40007812 65.22945313 -103.31640625 64.28515625 C-103 62 -103 62 -102 61 C-101.78678272 59.67331468 -101.63002537 58.33740381 -101.5 57 C-101.4175 56.195625 -101.335 55.39125 -101.25 54.5625 C-101.1675 53.716875 -101.085 52.87125 -101 52 C-100.83735957 50.33293562 -100.67089623 48.66623829 -100.5 47 C-100.4278125 46.2575 -100.355625 45.515 -100.28125 44.75 C-100 43 -100 43 -99 42 C-98.77246643 40.2962092 -98.60526762 38.58426501 -98.46484375 36.87109375 C-98.37783203 35.83662109 -98.29082031 34.80214844 -98.20117188 33.73632812 C-98.0706543 32.1034082 -98.0706543 32.1034082 -97.9375 30.4375 C-97.84662109 29.34501953 -97.75574219 28.25253906 -97.66210938 27.12695312 C-97.43737189 24.41827508 -97.21685911 21.70931834 -97 19 C-95.35 19 -93.7 19 -92 19 C-91.94465088 19.96413818 -91.88930176 20.92827637 -91.83227539 21.92163086 C-91.62636372 25.48702058 -91.41434216 29.05202487 -91.20043945 32.61694336 C-91.10859212 34.16209192 -91.01841863 35.7073409 -90.92993164 37.25268555 C-90.80270699 39.46952174 -90.66953438 41.68593115 -90.53515625 43.90234375 C-90.49656998 44.5971434 -90.4579837 45.29194305 -90.41822815 46.00779724 C-90.47227354 49.28947276 -90.47227354 49.28947276 -89 52 C-88.55244569 55.36229877 -88.17888746 58.72327022 -87.83789062 62.09765625 C-87.4273108 65.76283223 -87.08071813 67.87892281 -85 71 C-84.34 71 -83.68 71 -83 71 C-83.01160156 69.865625 -83.02320313 68.73125 -83.03515625 67.5625 C-83.0445441 66.04166833 -83.05364322 64.52083486 -83.0625 63 C-83.07087891 62.25621094 -83.07925781 61.51242188 -83.08789062 60.74609375 C-83.14207301 48.28414601 -83.14207301 48.28414601 -80.75 43.5 C-79 42 -79 42 -76.5 41.4375 C-74 42 -74 42 -72.1875 44.125 C-70.8623044 47.3333683 -70.68737961 49.56117575 -71 53 C-71.33 53.33 -71.66 53.66 -72 54 C-72.54054455 57.55214992 -72.96661061 61.11326665 -73.40234375 64.6796875 C-74 68 -74 68 -76 71 C-76.07905064 73.33199388 -76.08798769 75.66832622 -76 78 C-73.7763932 76.0745356 -73.7763932 76.0745356 -73 73 C-72.34 73 -71.68 73 -71 73 C-71 72.01 -71 71.02 -71 70 C-69.68 70 -68.36 70 -67 70 C-67.16242188 69.34128906 -67.32484375 68.68257813 -67.4921875 68.00390625 C-68.11784524 64.30290008 -68.14557012 60.67783333 -68.125 56.9375 C-68.12886719 56.23044922 -68.13273437 55.52339844 -68.13671875 54.79492188 C-68.13032651 51.39105469 -68.06453812 48.25275537 -67 45 C-66.34 45 -65.68 45 -65 45 C-64.67 44.01 -64.34 43.02 -64 42 C-63.01 42 -62.02 42 -61 42 C-61 41.34 -61 40.68 -61 40 C-55.375 39.75 -55.375 39.75 -52 42 C-52.16628906 41.33226562 -52.33257812 40.66453125 -52.50390625 39.9765625 C-54.1546397 30.07216181 -52.79161482 20.70332784 -47.5703125 12.13671875 C-46.15300677 10.20819578 -44.82794336 8.54326366 -43 7 C-42.34 7 -41.68 7 -41 7 C-40.67 6.01 -40.34 5.02 -40 4 C-38.28478222 2.95181136 -36.56532598 1.90588547 -34.7890625 0.96484375 C-32.75296615 -0.0973242 -32.75296615 -0.0973242 -30 -2 C-20.18022717 -4.19153728 -9.20754411 -4.32190846 0 0 Z M-9.125 25.9375 C-13.60553107 30.86608417 -14.33569392 35.66348598 -14.203125 42.08203125 C-14.10450698 44.08309255 -14.10450698 44.08309255 -13 46 C-12.34 46 -11.68 46 -11 46 C-11 46.66 -11 47.32 -11 48 C-10.01 48.33 -9.02 48.66 -8 49 C-6.3125 50.5625 -6.3125 50.5625 -5 52 C-4.67 51.01 -4.34 50.02 -4 49 C-1.5 47.375 -1.5 47.375 1 46 C2.23865033 44.98203191 2.23865033 44.98203191 2.1328125 42.85546875 C2.12894531 41.53482422 2.12894531 41.53482422 2.125 40.1875 C2.12757813 39.31480469 2.13015625 38.44210938 2.1328125 37.54296875 C2.01114834 35.21345785 1.65514709 33.23061985 1 31 C0.34 31 -0.32 31 -1 31 C-1.061875 30.38125 -1.12375 29.7625 -1.1875 29.125 C-1.84004806 26.77629324 -1.84004806 26.77629324 -4.3125 25.5625 C-6.96020495 24.73598217 -6.96020495 24.73598217 -9.125 25.9375 Z M-35 42 C-34.67 43.98 -34.34 45.96 -34 48 C-32.35 48.33 -30.7 48.66 -29 49 C-29 49.66 -29 50.32 -29 51 C-28.01 51 -27.02 51 -26 51 C-26 50.34 -26 49.68 -26 49 C-25.195625 48.773125 -24.39125 48.54625 -23.5625 48.3125 C-22.716875 47.879375 -21.87125 47.44625 -21 47 C-20.67 45.35 -20.34 43.7 -20 42 C-24.95 42 -29.9 42 -35 42 Z M-60 45 C-62.9843183 48.23301149 -64.2869278 50.97495875 -64.5 55.3125 C-64.27877942 60.32399692 -62.6089566 64.73426074 -60 69 C-59.34 69.33 -58.68 69.66 -58 70 C-58 69.01 -58 68.02 -58 67 C-57.34 67 -56.68 67 -56 67 C-53.41667001 60.21875878 -51.44454734 54.564579 -54.5 47.5625 C-55.2425 46.2940625 -55.2425 46.2940625 -56 45 C-57.32 45 -58.64 45 -60 45 Z M-77 51 C-76 54 -76 54 -76 54 Z M-49 51 C-49.02578125 51.845625 -49.0515625 52.69125 -49.078125 53.5625 C-49.43530985 60.70619692 -50.25723372 65.91270843 -54 72 C-54.6769533 73.32814022 -55.34626337 74.66027964 -56 76 C-54.15274948 76.69159401 -54.15274948 76.69159401 -52 77 C-48.5739739 75.20180184 -48.5739739 75.20180184 -48 71 C-44.7 70.34 -41.4 69.68 -38 69 C-38 70.98 -38 72.96 -38 75 C-37.01 74.67 -36.02 74.34 -35 74 C-34.67 72.68 -34.34 71.36 -34 70 C-30.7 69.67 -27.4 69.34 -24 69 C-24.79373236 66.84739691 -24.79373236 66.84739691 -26.78515625 66.32421875 C-27.53667969 66.11410156 -28.28820312 65.90398437 -29.0625 65.6875 C-36.0605437 63.46996704 -41.88593974 60.25337159 -46 54 C-46.33 53.01 -46.66 52.02 -47 51 C-47.66 51 -48.32 51 -49 51 Z M-95 58 C-97.18994248 61.28491373 -97.35277339 62.83095639 -97.625 66.6875 C-97.69976562 67.68136719 -97.77453125 68.67523438 -97.8515625 69.69921875 C-97.90054688 70.45847656 -97.94953125 71.21773437 -98 72 C-96.02 72 -94.04 72 -92 72 C-92 70.35 -92 68.7 -92 67 C-92.66 67 -93.32 67 -94 67 C-94 64.03 -94 61.06 -94 58 C-94.33 58 -94.66 58 -95 58 Z M-6 58 C-6.13277344 58.62648437 -6.26554688 59.25296875 -6.40234375 59.8984375 C-6.57894531 60.71570313 -6.75554687 61.53296875 -6.9375 62.375 C-7.11152344 63.18710938 -7.28554687 63.99921875 -7.46484375 64.8359375 C-8 67 -8 67 -9 69 C-9.04022391 71.3329866 -9.04320247 73.66706666 -9 76 C-8.34 76 -7.68 76 -7 76 C-5.04968308 71.92276266 -4.78418029 68.68307578 -4.875 64.1875 C-4.89304688 63.02605469 -4.91109375 61.86460938 -4.9296875 60.66796875 C-4.95289063 59.78753906 -4.97609375 58.90710938 -5 58 C-5.33 58 -5.66 58 -6 58 Z M-23 69 C-23 71.31 -23 73.62 -23 76 C-22.67 74.68 -22.34 73.36 -22 72 C-21.34 72 -20.68 72 -20 72 C-20 71.34 -20 70.68 -20 70 C-19.01 69.67 -18.02 69.34 -17 69 C-18.98 69 -20.96 69 -23 69 Z M-67 74 C-67 74.66 -67 75.32 -67 76 C-66.01 75.67 -65.02 75.34 -64 75 C-64.99 74.67 -65.98 74.34 -67 74 Z M-44 75 C-44 75.33 -44 75.66 -44 76 C-42.02 76 -40.04 76 -38 76 C-38 75.67 -38 75.34 -38 75 C-39.98 75 -41.96 75 -44 75 Z M-112 77 C-113.52193608 77.17265207 -115.04954296 77.29688337 -116.578125 77.39453125 C-117.49207031 77.46349609 -118.40601562 77.53246094 -119.34765625 77.60351562 C-121.26619716 77.7416609 -123.18551488 77.86944995 -125.10546875 77.98632812 C-130.92166711 78.44721902 -134.47207883 79.25458869 -139 83 C-138.12689787 88.76247406 -135.6706066 93.86421808 -133 99 C-132.34 99 -131.68 99 -131 99 C-131 99.99 -131 100.98 -131 102 C-129.68 102.33 -128.36 102.66 -127 103 C-127 103.66 -127 104.32 -127 105 C-125.02 105 -123.04 105 -121 105 C-121 104.34 -121 103.68 -121 103 C-120.01 103 -119.02 103 -118 103 C-115.57286241 100.38148757 -115.57286241 100.38148757 -115 97 C-114.34 97 -113.68 97 -113 97 C-107.97741394 86.87601438 -107.97741394 86.87601438 -106 76 C-109.7763932 75.7018576 -109.7763932 75.7018576 -112 77 Z " fill="#DF581E" transform="translate(168,7)"/>
<path d="M0 0 C1.65 0 3.3 0 5 0 C5.05534912 0.96413818 5.11069824 1.92827637 5.16772461 2.92163086 C5.37363628 6.48702058 5.58565784 10.05202487 5.79956055 13.61694336 C5.89140788 15.16209192 5.98158137 16.7073409 6.07006836 18.25268555 C6.19729301 20.46952174 6.33046562 22.68593115 6.46484375 24.90234375 C6.50343002 25.5971434 6.5420163 26.29194305 6.58177185 27.00779724 C6.52772646 30.28947276 6.52772646 30.28947276 8 33 C8.44755431 36.36229877 8.82111254 39.72327022 9.16210938 43.09765625 C9.5726892 46.76283223 9.91928187 48.87892281 12 52 C12.66 52 13.32 52 14 52 C13.98839844 50.865625 13.97679687 49.73125 13.96484375 48.5625 C13.9554559 47.04166833 13.94635678 45.52083486 13.9375 44 C13.92912109 43.25621094 13.92074219 42.51242188 13.91210938 41.74609375 C13.85792699 29.28414601 13.85792699 29.28414601 16.25 24.5 C18 23 18 23 20.5 22.4375 C23 23 23 23 24.8125 25.125 C26.1376956 28.3333683 26.31262039 30.56117575 26 34 C25.67 34.33 25.34 34.66 25 35 C24.45945545 38.55214992 24.03338939 42.11326665 23.59765625 45.6796875 C23 49 23 49 21 52 C20.92094936 54.33199388 20.91201231 56.66832622 21 59 C23.2236068 57.0745356 23.2236068 57.0745356 24 54 C24.66 54 25.32 54 26 54 C26 53.01 26 52.02 26 51 C27.32 51 28.64 51 30 51 C29.83757812 50.34128906 29.67515625 49.68257812 29.5078125 49.00390625 C28.88215476 45.30290008 28.85442988 41.67783333 28.875 37.9375 C28.87113281 37.23044922 28.86726563 36.52339844 28.86328125 35.79492188 C28.86967349 32.39105469 28.93546188 29.25275537 30 26 C30.66 26 31.32 26 32 26 C32.495 24.515 32.495 24.515 33 23 C33.99 23 34.98 23 36 23 C36 22.34 36 21.68 36 21 C39.34252724 20.92572162 41.8035914 20.93453047 45 22 C45.99 22 46.98 22 48 22 C48.99 26.95 48.99 26.95 50 32 C49.34 32 48.68 32 48 32 C48.309375 33.175625 48.309375 33.175625 48.625 34.375 C49.49235997 42.75947976 46.898563 49.30654369 42 56 C43.485 56.495 43.485 56.495 45 57 C47.26297735 56.14532959 47.26297735 56.14532959 48 53.5 C49 51 49 51 51 50 C53.6723621 49.86584528 56.32250488 49.95681459 59 50 C60.125 53.75 60.125 53.75 59 56 C61.7839183 54.60804085 61.97898997 52.84424221 63 50 C67.455 49.505 67.455 49.505 72 49 C70.618125 48.566875 69.23625 48.13375 67.8125 47.6875 C64.22638692 46.49967075 61.14653272 45.13152216 58 43 C61.76624671 41.74458443 63.37188934 42.62938042 67 44 C67 42.02 67 40.04 67 38 C67.66 38 68.32 38 69 38 C69 36.68 69 35.36 69 34 C68.34 34 67.68 34 67 34 C65.375 32.625 65.375 32.625 64 31 C64 30.34 64 29.68 64 29 C65.98 29.495 65.98 29.495 68 30 C68 30.66 68 31.32 68 32 C68.99 32 69.98 32 71 32 C71.84681133 37.08086796 72.09038099 41.84828377 72 47 C73.65 47 75.3 47 77 47 C77.33 47.99 77.66 48.98 78 50 C76.68 50 75.36 50 74 50 C74.33 50.99 74.66 51.98 75 53 C75.66 53 76.32 53 77 53 C77 52.34 77 51.68 77 51 C78.98 50.67 80.96 50.34 83 50 C83 49.34 83 48.68 83 48 C84.98 48 86.96 48 89 48 C88.96744792 50.05078125 88.93489583 52.1015625 88.90234375 54.15234375 C88.79438816 56.01732141 88.79438816 56.01732141 90 57 C91.32286246 52.03926578 91.08893197 47.08888488 91 42 C90.67 42 90.34 42 90 42 C89.91878076 40.39667209 89.86070866 38.79215974 89.8125 37.1875 C89.77769531 36.29417969 89.74289063 35.40085938 89.70703125 34.48046875 C90 32 90 32 91.3125 30.28125 C93.69855453 28.46961601 96.29286208 27.26333103 99 26 C99 27.32 99 28.64 99 30 C97.35 30.33 95.7 30.66 94 31 C94 37.27 94 43.54 94 50 C94.66 50 95.32 50 96 50 C96.33 51.98 96.66 53.96 97 56 C97.33 54.02 97.66 52.04 98 50 C100.3125 49.6875 100.3125 49.6875 103 50 C104.8125 52.5 104.8125 52.5 106 55 C106.28875 54.360625 106.5775 53.72125 106.875 53.0625 C108 51 108 51 110 50 C111.54023996 49.93049459 113.08334988 49.91547643 114.625 49.9375 C115.85089844 49.95103516 115.85089844 49.95103516 117.1015625 49.96484375 C117.72804687 49.97644531 118.35453125 49.98804688 119 50 C119.042721 51.66611905 119.04063832 53.33382885 119 55 C118 56 118 56 115.4375 56.0625 C114.633125 56.041875 113.82875 56.02125 113 56 C113.33 56.33 113.66 56.66 114 57 C114.886875 56.690625 115.77375 56.38125 116.6875 56.0625 C119.46709155 55.1709329 122.13136375 54.50622993 125 54 C125 55.32 125 56.64 125 58 C123.35 58.66 121.7 59.32 120 60 C120 60.66 120 61.32 120 62 C119.15695313 62.06058594 118.31390625 62.12117188 117.4453125 62.18359375 C116.34960938 62.26738281 115.25390625 62.35117188 114.125 62.4375 C113.03445312 62.51871094 111.94390625 62.59992188 110.8203125 62.68359375 C108.05271029 62.83001703 108.05271029 62.83001703 106 64 C105.57014306 66.32353985 105.57014306 66.32353985 105.4375 69 C105.09618321 73.90381679 105.09618321 73.90381679 104 75 C102.00041636 75.04080783 99.99954746 75.04254356 98 75 C98 72.03 98 69.06 98 66 C99.32 65.34 100.64 64.68 102 64 C101.67 62.68 101.34 61.36 101 60 C100.34 60 99.68 60 99 60 C99 60.66 99 61.32 99 62 C93.72 62 88.44 62 83 62 C83 65.3 83 68.6 83 72 C81.35 72 79.7 72 78 72 C78 68.7 78 65.4 78 62 C76.86820312 62 75.73640625 62 74.5703125 62 C69.71354167 62 64.85677083 62 60 62 C59.0925 62.185625 58.185 62.37125 57.25 62.5625 C54 63 54 63 51.0625 62.5 C47.48798755 61.91640613 44.56228811 62.46229613 41 63 C39.515 62.505 39.515 62.505 38 62 C38 61.34 38 60.68 38 60 C37.01 60 36.02 60 35 60 C35 60.66 35 61.32 35 62 C33.515 62.495 33.515 62.495 32 63 C32 65.97 32 68.94 32 72 C28 73 28 73 25.75 72.0625 C25.1725 71.711875 24.595 71.36125 24 71 C24 69.02 24 67.04 24 65 C24.66 65 25.32 65 26 65 C25.67 64.34 25.34 63.68 25 63 C24.0925 63.226875 23.185 63.45375 22.25 63.6875 C19 64 19 64 16.625 62.875 C15 61 15 61 14.75 58.3125 C14.8325 57.549375 14.915 56.78625 15 56 C14.01 56.33 13.02 56.66 12 57 C12 58.65 12 60.3 12 62 C12.66 62 13.32 62 14 62 C14.495 66.455 14.495 66.455 15 71 C15.66 71 16.32 71 17 71 C17 72.32 17 73.64 17 75 C14.6875 75.25 14.6875 75.25 12 75 C8.20663397 71.76861412 7.86315439 66.66435351 7 62 C6.79375 60.989375 6.5875 59.97875 6.375 58.9375 C6.25125 58.298125 6.1275 57.65875 6 57 C3.03 57 0.06 57 -3 57 C-3.0825 57.969375 -3.165 58.93875 -3.25 59.9375 C-3.93941255 64.7059368 -5.91218114 68.69825241 -8 73 C-8.57621094 74.28003906 -8.57621094 74.28003906 -9.1640625 75.5859375 C-11.74310407 81.12671712 -14.32230399 85.0341273 -19 89 C-23.99652074 90.66550691 -29.05772683 90.63421165 -34.0625 89 C-35.0215625 88.505 -35.0215625 88.505 -36 88 C-36 87.34 -36 86.68 -36 86 C-36.99 85.67 -37.98 85.34 -39 85 C-39.6875 82.9375 -39.6875 82.9375 -40 81 C-40.66 81 -41.32 81 -42 81 C-45.83111951 75.89184065 -47.19396389 70.4051523 -46.6875 64.125 C-46 61 -46 61 -45 59 C-44.34 59 -43.68 59 -43 59 C-43 58.34 -43 57.68 -43 57 C-41.85660156 56.86722656 -40.71320312 56.73445313 -39.53515625 56.59765625 C-38.0442438 56.4194969 -36.55335982 56.24109918 -35.0625 56.0625 C-33.93038086 55.93198242 -33.93038086 55.93198242 -32.77539062 55.79882812 C-29.07812542 55.65675901 -29.07812542 55.65675901 -26 54 C-24.58672053 53.84379445 -23.1664541 53.74943827 -21.74609375 53.68359375 C-20.89208984 53.64169922 -20.03808594 53.59980469 -19.15820312 53.55664062 C-18.26037109 53.51732422 -17.36253906 53.47800781 -16.4375 53.4375 C-15.08495117 53.37272461 -15.08495117 53.37272461 -13.70507812 53.30664062 C-11.47021515 53.20021858 -9.23523692 53.09820012 -7 53 C-6.90912109 51.93458984 -6.90912109 51.93458984 -6.81640625 50.84765625 C-6.73261719 49.92855469 -6.64882812 49.00945312 -6.5625 48.0625 C-6.48128906 47.14597656 -6.40007812 46.22945312 -6.31640625 45.28515625 C-6 43 -6 43 -5 42 C-4.78678272 40.67331468 -4.63002537 39.33740381 -4.5 38 C-4.4175 37.195625 -4.335 36.39125 -4.25 35.5625 C-4.1675 34.716875 -4.085 33.87125 -4 33 C-3.83735957 31.33293562 -3.67089623 29.66623829 -3.5 28 C-3.4278125 27.2575 -3.355625 26.515 -3.28125 25.75 C-3 24 -3 24 -2 23 C-1.77246643 21.2962092 -1.60526762 19.58426501 -1.46484375 17.87109375 C-1.37783203 16.83662109 -1.29082031 15.80214844 -1.20117188 14.73632812 C-1.11416016 13.64771484 -1.02714844 12.55910156 -0.9375 11.4375 C-0.84662109 10.34501953 -0.75574219 9.25253906 -0.66210938 8.12695312 C-0.43737189 5.41827508 -0.21685911 2.70931834 0 0 Z M37 26 C34.0156817 29.23301149 32.7130722 31.97495875 32.5 36.3125 C32.72122058 41.32399692 34.3910434 45.73426074 37 50 C37.66 50.33 38.32 50.66 39 51 C39 50.01 39 49.02 39 48 C39.66 48 40.32 48 41 48 C43.58332999 41.21875878 45.55545266 35.564579 42.5 28.5625 C41.7575 27.2940625 41.7575 27.2940625 41 26 C39.68 26 38.36 26 37 26 Z M20 32 C21 35 21 35 21 35 Z M2 39 C-0.18994248 42.28491373 -0.35277339 43.83095639 -0.625 47.6875 C-0.69976562 48.68136719 -0.77453125 49.67523438 -0.8515625 50.69921875 C-0.90054688 51.45847656 -0.94953125 52.21773437 -1 53 C0.98 53 2.96 53 5 53 C5 51.35 5 49.7 5 48 C4.34 48 3.68 48 3 48 C3 45.03 3 42.06 3 39 C2.67 39 2.34 39 2 39 Z M30 55 C30 55.66 30 56.32 30 57 C30.99 56.67 31.98 56.34 33 56 C32.01 55.67 31.02 55.34 30 55 Z M53 56 C53 56.33 53 56.66 53 57 C54.98 57 56.96 57 59 57 C59 56.67 59 56.34 59 56 C57.02 56 55.04 56 53 56 Z M-15 58 C-16.52193608 58.17265207 -18.04954296 58.29688337 -19.578125 58.39453125 C-20.49207031 58.46349609 -21.40601562 58.53246094 -22.34765625 58.60351562 C-24.26619716 58.7416609 -26.18551488 58.86944995 -28.10546875 58.98632812 C-33.92166711 59.44721902 -37.47207883 60.25458869 -42 64 C-41.12689787 69.76247406 -38.6706066 74.86421808 -36 80 C-35.34 80 -34.68 80 -34 80 C-34 80.99 -34 81.98 -34 83 C-32.68 83.33 -31.36 83.66 -30 84 C-30 84.66 -30 85.32 -30 86 C-28.02 86 -26.04 86 -24 86 C-24 85.34 -24 84.68 -24 84 C-23.01 84 -22.02 84 -21 84 C-18.57286241 81.38148757 -18.57286241 81.38148757 -18 78 C-17.34 78 -16.68 78 -16 78 C-10.97741394 67.87601438 -10.97741394 67.87601438 -9 57 C-12.7763932 56.7018576 -12.7763932 56.7018576 -15 58 Z " fill="#95411A" transform="translate(71,26)"/>
<path d="M0 0 C1.65 0 3.3 0 5 0 C5.05534912 0.96413818 5.11069824 1.92827637 5.16772461 2.92163086 C5.37363628 6.48702058 5.58565784 10.05202487 5.79956055 13.61694336 C5.89140788 15.16209192 5.98158137 16.7073409 6.07006836 18.25268555 C6.19729301 20.46952174 6.33046562 22.68593115 6.46484375 24.90234375 C6.50343002 25.5971434 6.5420163 26.29194305 6.58177185 27.00779724 C6.52772646 30.28947276 6.52772646 30.28947276 8 33 C8.44755431 36.36229877 8.82111254 39.72327022 9.16210938 43.09765625 C9.5726892 46.76283223 9.91928187 48.87892281 12 52 C12.66 52 13.32 52 14 52 C13.98839844 50.865625 13.97679687 49.73125 13.96484375 48.5625 C13.9554559 47.04166833 13.94635678 45.52083486 13.9375 44 C13.92912109 43.25621094 13.92074219 42.51242188 13.91210938 41.74609375 C13.85792699 29.28414601 13.85792699 29.28414601 16.25 24.5 C18 23 18 23 20.5 22.4375 C23 23 23 23 24.8125 25.125 C26.1376956 28.3333683 26.31262039 30.56117575 26 34 C25.67 34.33 25.34 34.66 25 35 C24.45945545 38.55214992 24.03338939 42.11326665 23.59765625 45.6796875 C23 49 23 49 21 52 C20.33386665 54.27538323 20.33386665 54.27538323 19.875 56.6875 C19.70742187 57.49574219 19.53984375 58.30398437 19.3671875 59.13671875 C19.18542969 60.05904297 19.18542969 60.05904297 19 61 C18.67 60.01 18.34 59.02 18 58 C17.01 58 16.02 58 15 58 C15 57.34 15 56.68 15 56 C14.01 56.33 13.02 56.66 12 57 C12 58.65 12 60.3 12 62 C12.66 62 13.32 62 14 62 C14.495 66.455 14.495 66.455 15 71 C15.66 71 16.32 71 17 71 C17 72.32 17 73.64 17 75 C14.6875 75.25 14.6875 75.25 12 75 C8.20663397 71.76861412 7.86315439 66.66435351 7 62 C6.79375 60.989375 6.5875 59.97875 6.375 58.9375 C6.25125 58.298125 6.1275 57.65875 6 57 C3.03 57 0.06 57 -3 57 C-3.0825 57.969375 -3.165 58.93875 -3.25 59.9375 C-3.93941255 64.7059368 -5.91218114 68.69825241 -8 73 C-8.57621094 74.28003906 -8.57621094 74.28003906 -9.1640625 75.5859375 C-11.74310407 81.12671712 -14.32230399 85.0341273 -19 89 C-23.99652074 90.66550691 -29.05772683 90.63421165 -34.0625 89 C-35.0215625 88.505 -35.0215625 88.505 -36 88 C-36 87.34 -36 86.68 -36 86 C-36.99 85.67 -37.98 85.34 -39 85 C-39.6875 82.9375 -39.6875 82.9375 -40 81 C-40.66 81 -41.32 81 -42 81 C-45.83111951 75.89184065 -47.19396389 70.4051523 -46.6875 64.125 C-46 61 -46 61 -45 59 C-44.34 59 -43.68 59 -43 59 C-43 58.34 -43 57.68 -43 57 C-41.85660156 56.86722656 -40.71320312 56.73445313 -39.53515625 56.59765625 C-38.0442438 56.4194969 -36.55335982 56.24109918 -35.0625 56.0625 C-33.93038086 55.93198242 -33.93038086 55.93198242 -32.77539062 55.79882812 C-29.07812542 55.65675901 -29.07812542 55.65675901 -26 54 C-24.58672053 53.84379445 -23.1664541 53.74943827 -21.74609375 53.68359375 C-20.89208984 53.64169922 -20.03808594 53.59980469 -19.15820312 53.55664062 C-18.26037109 53.51732422 -17.36253906 53.47800781 -16.4375 53.4375 C-15.08495117 53.37272461 -15.08495117 53.37272461 -13.70507812 53.30664062 C-11.47021515 53.20021858 -9.23523692 53.09820012 -7 53 C-6.90912109 51.93458984 -6.90912109 51.93458984 -6.81640625 50.84765625 C-6.73261719 49.92855469 -6.64882812 49.00945312 -6.5625 48.0625 C-6.48128906 47.14597656 -6.40007812 46.22945312 -6.31640625 45.28515625 C-6 43 -6 43 -5 42 C-4.78678272 40.67331468 -4.63002537 39.33740381 -4.5 38 C-4.4175 37.195625 -4.335 36.39125 -4.25 35.5625 C-4.1675 34.716875 -4.085 33.87125 -4 33 C-3.83735957 31.33293562 -3.67089623 29.66623829 -3.5 28 C-3.4278125 27.2575 -3.355625 26.515 -3.28125 25.75 C-3 24 -3 24 -2 23 C-1.77246643 21.2962092 -1.60526762 19.58426501 -1.46484375 17.87109375 C-1.37783203 16.83662109 -1.29082031 15.80214844 -1.20117188 14.73632812 C-1.11416016 13.64771484 -1.02714844 12.55910156 -0.9375 11.4375 C-0.84662109 10.34501953 -0.75574219 9.25253906 -0.66210938 8.12695312 C-0.43737189 5.41827508 -0.21685911 2.70931834 0 0 Z M20 32 C21 35 21 35 21 35 Z M2 39 C-0.18994248 42.28491373 -0.35277339 43.83095639 -0.625 47.6875 C-0.69976562 48.68136719 -0.77453125 49.67523438 -0.8515625 50.69921875 C-0.90054688 51.45847656 -0.94953125 52.21773437 -1 53 C0.98 53 2.96 53 5 53 C5 51.35 5 49.7 5 48 C4.34 48 3.68 48 3 48 C3 45.03 3 42.06 3 39 C2.67 39 2.34 39 2 39 Z M-15 58 C-16.52193608 58.17265207 -18.04954296 58.29688337 -19.578125 58.39453125 C-20.49207031 58.46349609 -21.40601562 58.53246094 -22.34765625 58.60351562 C-24.26619716 58.7416609 -26.18551488 58.86944995 -28.10546875 58.98632812 C-33.92166711 59.44721902 -37.47207883 60.25458869 -42 64 C-41.12689787 69.76247406 -38.6706066 74.86421808 -36 80 C-35.34 80 -34.68 80 -34 80 C-34 80.99 -34 81.98 -34 83 C-32.68 83.33 -31.36 83.66 -30 84 C-30 84.66 -30 85.32 -30 86 C-28.02 86 -26.04 86 -24 86 C-24 85.34 -24 84.68 -24 84 C-23.01 84 -22.02 84 -21 84 C-18.57286241 81.38148757 -18.57286241 81.38148757 -18 78 C-17.34 78 -16.68 78 -16 78 C-10.97741394 67.87601438 -10.97741394 67.87601438 -9 57 C-12.7763932 56.7018576 -12.7763932 56.7018576 -15 58 Z " fill="#A9471C" transform="translate(71,26)"/>
<path d="M0 0 C0.33 1.32 0.66 2.64 1 4 C-0.65 4.33 -2.3 4.66 -4 5 C-4 11.27 -4 17.54 -4 24 C-3.34 24 -2.68 24 -2 24 C-1.67 25.98 -1.34 27.96 -1 30 C-0.67 28.02 -0.34 26.04 0 24 C2.3125 23.6875 2.3125 23.6875 5 24 C6.8125 26.5 6.8125 26.5 8 29 C8.28875 28.360625 8.5775 27.72125 8.875 27.0625 C10 25 10 25 12 24 C13.54023996 23.93049459 15.08334988 23.91547643 16.625 23.9375 C17.85089844 23.95103516 17.85089844 23.95103516 19.1015625 23.96484375 C19.72804687 23.97644531 20.35453125 23.98804687 21 24 C21.042721 25.66611905 21.04063832 27.33382885 21 29 C20 30 20 30 17.4375 30.0625 C16.633125 30.041875 15.82875 30.02125 15 30 C15.33 30.33 15.66 30.66 16 31 C16.886875 30.690625 17.77375 30.38125 18.6875 30.0625 C21.46709155 29.1709329 24.13136375 28.50622993 27 28 C27 29.32 27 30.64 27 32 C25.35 32.66 23.7 33.32 22 34 C22 34.66 22 35.32 22 36 C21.15695313 36.06058594 20.31390625 36.12117188 19.4453125 36.18359375 C18.34960938 36.26738281 17.25390625 36.35117188 16.125 36.4375 C15.03445312 36.51871094 13.94390625 36.59992188 12.8203125 36.68359375 C10.05271029 36.83001703 10.05271029 36.83001703 8 38 C7.57014306 40.32353985 7.57014306 40.32353985 7.4375 43 C7.09618321 47.90381679 7.09618321 47.90381679 6 49 C4.00041636 49.04080783 1.99954746 49.04254356 0 49 C0 46.03 0 43.06 0 40 C1.32 39.34 2.64 38.68 4 38 C3.67 36.68 3.34 35.36 3 34 C2.34 34 1.68 34 1 34 C1 34.66 1 35.32 1 36 C-4.28 36 -9.56 36 -15 36 C-15 39.3 -15 42.6 -15 46 C-16.65 46 -18.3 46 -20 46 C-20 42.7 -20 39.4 -20 36 C-20.99 36 -21.98 36 -23 36 C-23 35.34 -23 34.68 -23 34 C-21.02 34.33 -19.04 34.66 -17 35 C-16.67 33.35 -16.34 31.7 -16 30 C-15.34 30 -14.68 30 -14 30 C-14 28.68 -14 27.36 -14 26 C-13.34 26 -12.68 26 -12 26 C-12 27.98 -12 29.96 -12 32 C-10.35 32 -8.7 32 -7 32 C-7 26.72 -7 21.44 -7 16 C-7.33 16 -7.66 16 -8 16 C-8.08121924 14.39667209 -8.13929134 12.79215974 -8.1875 11.1875 C-8.22230469 10.29417969 -8.25710937 9.40085937 -8.29296875 8.48046875 C-8 6 -8 6 -6.65625 4.28125 C-4.54544663 2.64836438 -2.31894065 1.31615551 0 0 Z " fill="#9C441B" transform="translate(169,52)"/>
<path d="M0 0 C1.32 0.33 2.64 0.66 4 1 C4 1.66 4 2.32 4 3 C4.99 3 5.98 3 7 3 C7.84681133 8.08086796 8.09038099 12.84828377 8 18 C9.65 18 11.3 18 13 18 C13.495 19.485 13.495 19.485 14 21 C12.68 21 11.36 21 10 21 C10.495 22.485 10.495 22.485 11 24 C11.66 24 12.32 24 13 24 C13 23.34 13 22.68 13 22 C14.98 21.67 16.96 21.34 19 21 C19 20.34 19 19.68 19 19 C20.98 19 22.96 19 25 19 C24.96744792 21.05078125 24.93489583 23.1015625 24.90234375 25.15234375 C24.79438816 27.01732141 24.79438816 27.01732141 26 28 C26.33 26.35 26.66 24.7 27 23 C28.125 26.75 28.125 26.75 27 29 C25.35 29 23.7 29 22 29 C22 27.02 22 25.04 22 23 C21.34 23 20.68 23 20 23 C20 24.32 20 25.64 20 27 C19.34 27 18.68 27 18 27 C17.505 29.475 17.505 29.475 17 32 C15.02 31.67 13.04 31.34 11 31 C11 31.66 11 32.32 11 33 C6 33 1 33 -4 33 C-4.9075 33.185625 -5.815 33.37125 -6.75 33.5625 C-10 34 -10 34 -12.9375 33.5 C-16.51387747 32.91610164 -19.45225286 33.36140551 -23 34 C-23.33 32.68 -23.66 31.36 -24 30 C-20.04 29.505 -20.04 29.505 -16 29 C-16.061875 28.05125 -16.12375 27.1025 -16.1875 26.125 C-16.125625 25.09375 -16.06375 24.0625 -16 23 C-12.91111478 20.94074319 -12.29064073 20.7609626 -8.8125 20.875 C-7.554375 20.91625 -6.29625 20.9575 -5 21 C-3.875 24.75 -3.875 24.75 -5 27 C-2.2160817 25.60804085 -2.02101003 23.84424221 -1 21 C1.97 20.67 4.94 20.34 8 20 C6.618125 19.566875 5.23625 19.13375 3.8125 18.6875 C0.22638692 17.49967075 -2.85346728 16.13152216 -6 14 C-2.23375329 12.74458443 -0.62811066 13.62938042 3 15 C3 13.02 3 11.04 3 9 C3.66 9 4.32 9 5 9 C5 7.68 5 6.36 5 5 C4.34 5 3.68 5 3 5 C1.375 3.625 1.375 3.625 0 2 C0 1.34 0 0.68 0 0 Z M-11 27 C-11 27.33 -11 27.66 -11 28 C-9.02 28 -7.04 28 -5 28 C-5 27.67 -5 27.34 -5 27 C-6.98 27 -8.96 27 -11 27 Z " fill="#A6461C" transform="translate(135,55)"/>
<path d="M0 0 C0.33 0.99 0.66 1.98 1 3 C2.299375 3.144375 3.59875 3.28875 4.9375 3.4375 C8.875 3.875 8.875 3.875 10 5 C10.08631874 6.34267413 10.10706473 7.68974322 10.09765625 9.03515625 C10.09443359 9.84404297 10.09121094 10.65292969 10.08789062 11.48632812 C10.07951172 12.33646484 10.07113281 13.18660156 10.0625 14.0625 C10.05798828 14.91650391 10.05347656 15.77050781 10.04882812 16.65039062 C10.03700373 18.76695663 10.01906769 20.88348685 10 23 C7.69 23 5.38 23 3 23 C3 23.66 3 24.32 3 25 C1.35 25 -0.3 25 -2 25 C-2.33 24.34 -2.66 23.68 -3 23 C-4.65 22.67 -6.3 22.34 -8 22 C-8.33 17.05 -8.66 12.1 -9 7 C-6.94921875 6.05598958 -4.8984375 5.11197917 -2.84765625 4.16796875 C-0.66970511 3.06399866 -0.66970511 3.06399866 0 0 Z " fill="#E1591E" transform="translate(151,51)"/>
<path d="M0 0 C1.65 0 3.3 0 5 0 C5.65174906 8.54256809 6.10367824 17.05542952 6.125 25.625 C6.12951172 26.36991699 6.13402344 27.11483398 6.13867188 27.88232422 C6.1274142 32.02608523 5.8077732 35.93549042 5 40 C4.67 40 4.34 40 4 40 C4 37.03 4 34.06 4 31 C3.34 31 2.68 31 2 31 C2 31.99 2 32.98 2 34 C0.515 34.495 0.515 34.495 -1 35 C-2.19280031 31.42159906 -1.92399741 28.39947646 -1.66015625 24.70703125 C-1.61434921 24.00100266 -1.56854218 23.29497406 -1.52134705 22.56755066 C-1.37395107 20.31545919 -1.21833211 18.06402192 -1.0625 15.8125 C-0.96104599 14.28454114 -0.8601281 12.75654657 -0.75976562 11.22851562 C-0.51272655 7.48523463 -0.25831193 3.7425193 0 0 Z " fill="#DD5B21" transform="translate(71,26)"/>
<path d="M0 0 C1.32 0 2.64 0 4 0 C4.33 0.66 4.66 1.32 5 2 C5.99 1.67 6.98 1.34 8 1 C7.67 5.95 7.34 10.9 7 16 C7.66 16.33 8.32 16.66 9 17 C8.34 17.66 7.68 18.32 7 19 C4.6171875 18.9765625 4.6171875 18.9765625 1.875 18.625 C0.96492187 18.51414062 0.05484375 18.40328125 -0.8828125 18.2890625 C-1.58148438 18.19367187 -2.28015625 18.09828125 -3 18 C-2.67 19.98 -2.34 21.96 -2 24 C-2.66 24 -3.32 24 -4 24 C-5.38226016 21.23547967 -5.09525387 18.9538637 -5.0625 15.875 C-5.05347656 14.77929688 -5.04445312 13.68359375 -5.03515625 12.5546875 C-5.02355469 11.71164063 -5.01195312 10.86859375 -5 10 C-4.34 10 -3.68 10 -3 10 C-3.33 7.69 -3.66 5.38 -4 3 C-3.01 3 -2.02 3 -1 3 C-0.67 2.01 -0.34 1.02 0 0 Z " fill="#D2561F" transform="translate(136,31)"/>
<path d="M0 0 C0.33 0 0.66 0 1 0 C1.42278734 8.9137665 1.58616013 16.10983203 -3 24 C-3.5775 25.175625 -4.155 26.35125 -4.75 27.5625 C-5.1625 28.366875 -5.575 29.17125 -6 30 C-6.99 30 -7.98 30 -9 30 C-9 30.66 -9 31.32 -9 32 C-9.66 32 -10.32 32 -11 32 C-11 32.99 -11 33.98 -11 35 C-11.66 35 -12.32 35 -13 35 C-11.2827451 27.90759764 -9.02218607 21.31109618 -6.0859375 14.62890625 C-4.85261951 11.82477578 -4.85261951 11.82477578 -4 8 C-7.3 8 -10.6 8 -14 8 C-14.33 7.01 -14.66 6.02 -15 5 C-12.87506859 4.97306425 -10.75004088 4.95363372 -8.625 4.9375 C-7.44164062 4.92589844 -6.25828125 4.91429688 -5.0390625 4.90234375 C-2 5 -2 5 0 6 C0 4.02 0 2.04 0 0 Z " fill="#943D18" transform="translate(66,75)"/>
<path d="M0 0 C1.5 1.375 1.5 1.375 3 3 C3 3.66 3 4.32 3 5 C3.66 5 4.32 5 5 5 C5 5.99 5 6.98 5 8 C6.32 8.33 7.64 8.66 9 9 C9 9.66 9 10.32 9 11 C10.98 11 12.96 11 15 11 C15 10.34 15 9.68 15 9 C15.99 9 16.98 9 18 9 C18.309375 8.38125 18.61875 7.7625 18.9375 7.125 C19.625 5.75 20.3125 4.375 21 3 C21.66 3 22.32 3 23 3 C22.34 4.98 21.68 6.96 21 9 C21.66 9 22.32 9 23 9 C23 8.01 23 7.02 23 6 C23.66 6 24.32 6 25 6 C25 5.34 25 4.68 25 4 C25.66 4 26.32 4 27 4 C25.60506348 8.43843439 23.48101799 10.9434964 20 14 C15.00347926 15.66550691 9.94227317 15.63421165 4.9375 14 C4.298125 13.67 3.65875 13.34 3 13 C3 12.34 3 11.68 3 11 C2.01 10.67 1.02 10.34 0 10 C-0.33 9.01 -0.66 8.02 -1 7 C-0.01 7 0.98 7 2 7 C1.67 6.401875 1.34 5.80375 1 5.1875 C0 3 0 3 0 0 Z " fill="#903C18" transform="translate(32,101)"/>
<path d="M0 0 C0.99 0 1.98 0 3 0 C3.66 3.3 4.32 6.6 5 10 C4.34 10 3.68 10 3 10 C3.20625 10.78375 3.4125 11.5675 3.625 12.375 C4.16816304 17.62557607 3.85009313 23.24936486 0.8203125 27.75390625 C-0.5 29.125 -0.5 29.125 -3 31 C-3.66 31 -4.32 31 -5 31 C-4.69249629 28.85344499 -4.3788634 26.70776715 -4.0625 24.5625 C-3.88847656 23.36753906 -3.71445313 22.17257813 -3.53515625 20.94140625 C-3 18 -3 18 -2 17 C-1.92728259 14.64686445 -1.91629132 12.29166332 -1.9375 9.9375 C-1.95103516 8.00197266 -1.95103516 8.00197266 -1.96484375 6.02734375 C-1.97644531 5.02832031 -1.98804687 4.02929688 -2 3 C-0.68 3.33 0.64 3.66 2 4 C2 3.34 2 2.68 2 2 C1.34 2 0.68 2 0 2 C0 1.34 0 0.68 0 0 Z " fill="#A7451B" transform="translate(116,48)"/>
<path d="M0 0 C1.32 0.33 2.64 0.66 4 1 C3.01 1.66 2.02 2.32 1 3 C-2.4188866 8.95139519 -2.32975461 14.24613709 -2 21 C-1.34 21 -0.68 21 0 21 C0 21.66 0 22.32 0 23 C-0.845625 22.7525 -1.69125 22.505 -2.5625 22.25 C-7.27910108 21.90697447 -9.05327314 23.49534641 -13 26 C-13.66 26 -14.32 26 -15 26 C-15 25.34 -15 24.68 -15 24 C-14.19175781 23.60167969 -13.38351563 23.20335938 -12.55078125 22.79296875 C-9.67583595 21.19875405 -9.67583595 21.19875405 -9.29296875 17.86328125 C-9.25816406 16.69152344 -9.22335938 15.51976562 -9.1875 14.3125 C-9.13980469 13.13300781 -9.09210938 11.95351563 -9.04296875 10.73828125 C-9.02878906 9.83464844 -9.01460937 8.93101563 -9 8 C-8.195625 7.71125 -7.39125 7.4225 -6.5625 7.125 C-3.8673532 6.26737432 -3.8673532 6.26737432 -3 4 C-2.34 4 -1.68 4 -1 4 C-0.67 2.68 -0.34 1.36 0 0 Z " fill="#B14A1C" transform="translate(157,32)"/>
<path d="M0 0 C0.66 0 1.32 0 2 0 C1.67 1.98 1.34 3.96 1 6 C3.97 6.495 3.97 6.495 7 7 C7.5745952 10.73486879 8 14.21293268 8 18 C5.39417629 18.93065133 4.35801776 19.14917407 1.75 18.0625 C0.88375 17.5365625 0.88375 17.5365625 0 17 C0 15.02 0 13.04 0 11 C0.66 11 1.32 11 2 11 C1.67 10.34 1.34 9.68 1 9 C0.0925 9.226875 -0.815 9.45375 -1.75 9.6875 C-5 10 -5 10 -7.375 8.75 C-9 7 -9 7 -9 4 C-4.25 3.875 -4.25 3.875 -2 5 C-1.34 3.35 -0.68 1.7 0 0 Z " fill="#823E21" transform="translate(95,80)"/>
<path d="M0 0 C2.625 0.375 2.625 0.375 4.4375 2.5 C5.7626956 5.7083683 5.93762039 7.93617575 5.625 11.375 C5.295 11.705 4.965 12.035 4.625 12.375 C4.08687226 15.9926655 3.6582711 19.61865604 3.22265625 23.25 C3.02542969 24.28125 2.82820313 25.3125 2.625 26.375 C1.965 26.705 1.305 27.035 0.625 27.375 C0.295 26.385 -0.035 25.395 -0.375 24.375 C-1.035 25.035 -1.695 25.695 -2.375 26.375 C-2.375 23.405 -2.375 20.435 -2.375 17.375 C-1.715 17.375 -1.055 17.375 -0.375 17.375 C-0.38660156 16.45976563 -0.39820312 15.54453125 -0.41015625 14.6015625 C-0.42369141 12.81878906 -0.42369141 12.81878906 -0.4375 11 C-0.44910156 9.81664062 -0.46070312 8.63328125 -0.47265625 7.4140625 C-0.375 4.375 -0.375 4.375 0.625 2.375 C-0.695 2.045 -2.015 1.715 -3.375 1.375 C-2.375 0.375 -2.375 0.375 0 0 Z " fill="#994018" transform="translate(91.375,48.625)"/>
<path d="M0 0 C1.32 0 2.64 0 4 0 C3.67 4.95 3.34 9.9 3 15 C2.34 15 1.68 15 1 15 C1.34227572 17.97065509 1.34227572 17.97065509 2 21 C2.66 21.33 3.32 21.66 4 22 C3.88570603 23.77155654 3.75816963 25.54226229 3.625 27.3125 C3.55539063 28.29863281 3.48578125 29.28476563 3.4140625 30.30078125 C3 33 3 33 1 36 C1 35.01 1 34.02 1 33 C0.01 32.67 -0.98 32.34 -2 32 C-1.86019545 27.97893351 -1.71207681 23.9582139 -1.5625 19.9375 C-1.52318359 18.80376953 -1.48386719 17.67003906 -1.44335938 16.50195312 C-1.23227663 10.93261605 -0.94904568 5.49489474 0 0 Z " fill="#D6571F" transform="translate(88,51)"/>
<path d="M0 0 C0.66 0 1.32 0 2 0 C2.33 2.31 2.66 4.62 3 7 C4.32 7.33 5.64 7.66 7 8 C7.33 9.65 7.66 11.3 8 13 C6.35 12.67 4.7 12.34 3 12 C3 13.32 3 14.64 3 16 C-4.75 15.125 -4.75 15.125 -7 14 C-6.67 11.03 -6.34 8.06 -6 5 C-4.02 5 -2.04 5 0 5 C0 3.35 0 1.7 0 0 Z M-2 9 C-2 9.66 -2 10.32 -2 11 C-1.01 10.67 -0.02 10.34 1 10 C0.01 9.67 -0.98 9.34 -2 9 Z " fill="#8E3D19" transform="translate(103,72)"/>
<path d="M0 0 C1.65 0.33 3.3 0.66 5 1 C4.01 1.495 4.01 1.495 3 2 C3.51407403 6.36962928 4.35910967 9.94603566 6 14 C6.74237563 16.98465305 7.38299194 19.98716276 8 23 C5.6875 22.8125 5.6875 22.8125 3 22 C-0.95811067 17.16230919 -2.17932681 11.22365244 -1.6875 5.125 C-1 2 -1 2 0 0 Z " fill="#813817" transform="translate(26,85)"/>
<path d="M0 0 C1.66666667 0 3.33333333 0 5 0 C4.67 4.29 4.34 8.58 4 13 C5.11375 12.95875 6.2275 12.9175 7.375 12.875 C11 13 11 13 13 15 C13.125 17.625 13.125 17.625 13 20 C12.34 19.67 11.68 19.34 11 19 C11 17.68 11 16.36 11 15 C8.03 15 5.06 15 2 15 C2 15.66 2 16.32 2 17 C1.34 17 0.68 17 0 17 C0 15.68 0 14.36 0 13 C-2.31 12.67 -4.62 12.34 -7 12 C-7 11.67 -7 11.34 -7 11 C-5.35 11 -3.7 11 -2 11 C-1.93941406 10.28972656 -1.87882812 9.57945313 -1.81640625 8.84765625 C-1.73261719 7.92855469 -1.64882812 7.00945312 -1.5625 6.0625 C-1.48128906 5.14597656 -1.40007812 4.22945313 -1.31640625 3.28515625 C-1 1 -1 1 0 0 Z " fill="#913E18" transform="translate(66,68)"/>
<path d="M0 0 C0.66 0.33 1.32 0.66 2 1 C2.70491267 3.32206525 3.37212429 5.65593068 4 8 C4.33 8.33 4.66 8.66 5 9 C5.33 8.34 5.66 7.68 6 7 C6.66 7 7.32 7 8 7 C7.67 8.65 7.34 10.3 7 12 C8.32 11.67 9.64 11.34 11 11 C10.34 12.32 9.68 13.64 9 15 C12 16.33333333 12 16.33333333 15 15 C15 15.66 15 16.32 15 17 C12.29120665 18.35439668 9.99066732 18.06501451 7 18 C6.731875 17.195625 6.46375 16.39125 6.1875 15.5625 C5.795625 14.716875 5.40375 13.87125 5 13 C4.01 12.67 3.02 12.34 2 12 C1.67 9.69 1.34 7.38 1 5 C0.34 5 -0.32 5 -1 5 C-0.67 3.35 -0.34 1.7 0 0 Z M-4 2 C-3.34 2 -2.68 2 -2 2 C-0.14223235 5.13498292 0.20140476 7.37471432 0 11 C-0.99 10.67 -1.98 10.34 -3 10 C-3.33 7.36 -3.66 4.72 -4 2 Z M2 17 C4.475 17.495 4.475 17.495 7 18 C7 18.99 7 19.98 7 21 C6.34 21 5.68 21 5 21 C5 20.34 5 19.68 5 19 C4.01 19 3.02 19 2 19 C2 18.34 2 17.68 2 17 Z " fill="#833616" transform="translate(104,67)"/>
<path d="M0 0 C1.98 0 3.96 0 6 0 C5.95117188 3.07617188 5.95117188 3.07617188 5.90234375 6.15234375 C5.79438816 8.01732141 5.79438816 8.01732141 7 9 C7.33 7.35 7.66 5.7 8 4 C9.125 7.75 9.125 7.75 8 10 C6.35 10 4.7 10 3 10 C3 8.02 3 6.04 3 4 C2.34 4 1.68 4 1 4 C1 5.32 1 6.64 1 8 C0.34 8 -0.32 8 -1 8 C-1.33 8.99 -1.66 9.98 -2 11 C-2.66 11 -3.32 11 -4 11 C-4 9.35 -4 7.7 -4 6 C-5.32 6.33 -6.64 6.66 -8 7 C-8 6.34 -8 5.68 -8 5 C-7.34 5 -6.68 5 -6 5 C-6 4.34 -6 3.68 -6 3 C-4.02 2.67 -2.04 2.34 0 2 C0 1.34 0 0.68 0 0 Z " fill="#A3481B" transform="translate(154,74)"/>
<path d="M0 0 C1.32 0.33 2.64 0.66 4 1 C4 1.66 4 2.32 4 3 C4.99 3 5.98 3 7 3 C7 8.28 7 13.56 7 19 C0.17003598 18.02429085 -1.07997462 17.72001919 -6 14 C-2.23375329 12.74458443 -0.62811066 13.62938042 3 15 C3 13.02 3 11.04 3 9 C3.66 9 4.32 9 5 9 C5 7.68 5 6.36 5 5 C4.34 5 3.68 5 3 5 C1.375 3.625 1.375 3.625 0 2 C0 1.34 0 0.68 0 0 Z " fill="#823619" transform="translate(135,55)"/>
<path d="M0 0 C0.66 0 1.32 0 2 0 C2 5.28 2 10.56 2 16 C2.66 16 3.32 16 4 16 C4 11.05 4 6.1 4 1 C4.99 0.67 5.98 0.34 7 0 C6.67 4.95 6.34 9.9 6 15 C6.66 15.33 7.32 15.66 8 16 C6 18 6 18 3.4375 18.1875 C1 18 1 18 0 17 C-0.07325168 14.13732433 -0.09238205 11.299281 -0.0625 8.4375 C-0.05798828 7.63119141 -0.05347656 6.82488281 -0.04882812 5.99414062 C-0.03700518 3.99606244 -0.01906914 1.99802217 0 0 Z " fill="#8D3D17" transform="translate(137,32)"/>
<path d="M0 0 C0.33 1.32 0.66 2.64 1 4 C-0.65 4.33 -2.3 4.66 -4 5 C-4 11.27 -4 17.54 -4 24 C-3.34 24.33 -2.68 24.66 -2 25 C-3.32 25 -4.64 25 -6 25 C-6.33 22.03 -6.66 19.06 -7 16 C-7.33 16 -7.66 16 -8 16 C-8.08121924 14.39667209 -8.13929134 12.79215974 -8.1875 11.1875 C-8.22230469 10.29417969 -8.25710937 9.40085937 -8.29296875 8.48046875 C-8 6 -8 6 -6.65625 4.28125 C-4.54544663 2.64836438 -2.31894065 1.31615551 0 0 Z " fill="#763214" transform="translate(169,52)"/>
<path d="M0 0 C0.33 0 0.66 0 1 0 C1 3.96 1 7.92 1 12 C0.01 12 -0.98 12 -2 12 C-2.33 12.99 -2.66 13.98 -3 15 C-3.33 12.69 -3.66 10.38 -4 8 C-7.3 8 -10.6 8 -14 8 C-14.33 7.01 -14.66 6.02 -15 5 C-12.87506859 4.97306425 -10.75004088 4.95363372 -8.625 4.9375 C-7.44164062 4.92589844 -6.25828125 4.91429688 -5.0390625 4.90234375 C-2 5 -2 5 0 6 C0 4.02 0 2.04 0 0 Z " fill="#CA5721" transform="translate(66,75)"/>
<path d="M0 0 C1.4540625 0.0309375 1.4540625 0.0309375 2.9375 0.0625 C2.96439216 1.54156892 2.98384621 3.02077483 3 4.5 C3.01160156 5.32371094 3.02320313 6.14742188 3.03515625 6.99609375 C2.9375 9.0625 2.9375 9.0625 1.9375 10.0625 C-0.06208364 10.10330783 -2.06295254 10.10504356 -4.0625 10.0625 C-4.08939216 8.58343108 -4.10884621 7.10422517 -4.125 5.625 C-4.13660156 4.80128906 -4.14820313 3.97757812 -4.16015625 3.12890625 C-4.00103255 -0.23815127 -3.43619093 0.07012635 0 0 Z " fill="#726B66" transform="translate(173.0625,90.9375)"/>
<path d="M0 0 C0.66 0 1.32 0 2 0 C2.33 2.97 2.66 5.94 3 9 C3.66 9 4.32 9 5 9 C5 10.32 5 11.64 5 13 C2.6875 13.25 2.6875 13.25 0 13 C-3.74279765 9.79188773 -3.61390002 5.63319979 -4 1 C-3.34 1 -2.68 1 -2 1 C-2 1.99 -2 2.98 -2 4 C-1.34 4 -0.68 4 0 4 C0 2.68 0 1.36 0 0 Z " fill="#983F19" transform="translate(83,88)"/>
<path d="M0 0 C0.33 0.66 0.66 1.32 1 2 C1.66 2.33 2.32 2.66 3 3 C2.34 3 1.68 3 1 3 C1 7.29 1 11.58 1 16 C-0.65 16 -2.3 16 -4 16 C-4 12.7 -4 9.4 -4 6 C-4.99 6 -5.98 6 -7 6 C-7 5.34 -7 4.68 -7 4 C-4.03 4.495 -4.03 4.495 -1 5 C-0.67 3.35 -0.34 1.7 0 0 Z " fill="#80523F" transform="translate(153,82)"/>
<path d="M0 0 C1.65 0 3.3 0 5 0 C5.66 1.65 6.32 3.3 7 5 C6.34 5 5.68 5 5 5 C5 7.64 5 10.28 5 13 C5.99 13.33 6.98 13.66 8 14 C6.68 14 5.36 14 4 14 C3.67 12.68 3.34 11.36 3 10 C2.34 10 1.68 10 1 10 C1 9.01 1 8.02 1 7 C0.01 7.495 0.01 7.495 -1 8 C-0.67 5.36 -0.34 2.72 0 0 Z " fill="#833817" transform="translate(169,76)"/>
<path d="M0 0 C0.33 0 0.66 0 1 0 C0.67 10.23 0.34 20.46 0 31 C-1.65 30.67 -3.3 30.34 -5 30 C-4.01 29.67 -3.02 29.34 -2 29 C-2 28.34 -2 27.68 -2 27 C-2.66 26.67 -3.32 26.34 -4 26 C-3.34 26 -2.68 26 -2 26 C-2.01160156 24.865625 -2.02320312 23.73125 -2.03515625 22.5625 C-2.0445441 21.04166833 -2.05364322 19.52083486 -2.0625 18 C-2.07087891 17.25621094 -2.07925781 16.51242188 -2.08789062 15.74609375 C-2.10966004 10.73912906 -1.7898031 5.94869637 -1 1 C-0.67 0.67 -0.34 0.34 0 0 Z " fill="#763214" transform="translate(87,52)"/>
<path d="M0 0 C0.33 0 0.66 0 1 0 C0.98839844 0.78246094 0.97679688 1.56492188 0.96484375 2.37109375 C0.95582031 3.38300781 0.94679688 4.39492188 0.9375 5.4375 C0.92589844 6.44683594 0.91429688 7.45617188 0.90234375 8.49609375 C0.71387324 10.94021067 0.71387324 10.94021067 2 12 C2.04092937 14.33297433 2.04241723 16.66705225 2 19 C1.34 19 0.68 19 0 19 C0 21.31 0 23.62 0 26 C-0.33 26 -0.66 26 -1 26 C-2.68507646 17.78525225 -2.32719301 9.25808983 -1 1 C-0.67 0.67 -0.34 0.34 0 0 Z " fill="#A84419" transform="translate(69,49)"/>
<path d="M0 0 C2.25183318 4.50366636 2.25183318 4.50366636 2.23046875 8.1171875 C2.22853516 8.88933594 2.22660156 9.66148438 2.22460938 10.45703125 C2.21236328 11.25496094 2.20011719 12.05289063 2.1875 12.875 C2.18685547 13.66519531 2.18621094 14.45539062 2.18554688 15.26953125 C2.15299236 19.61736729 1.86003923 23.72044481 1 28 C0.67 28 0.34 28 0 28 C0 25.03 0 22.06 0 19 C-0.99 19 -1.98 19 -3 19 C-3 18.01 -3 17.02 -3 16 C-2.34 16 -1.68 16 -1 16 C-0.67 10.72 -0.34 5.44 0 0 Z " fill="#AF481C" transform="translate(75,38)"/>
<path d="M0 0 C0 0.99 0 1.98 0 3 C-2.97 3.66 -5.94 4.32 -9 5 C-9 5.66 -9 6.32 -9 7 C-9.66 7 -10.32 7 -11 7 C-11.226875 7.556875 -11.45375 8.11375 -11.6875 8.6875 C-13.37550036 11.66159588 -15.46676517 13.72008865 -18 16 C-18.66 16 -19.32 16 -20 16 C-19.4409112 12.75728494 -18.5867822 11.06942576 -16 9 C-15.34 9 -14.68 9 -14 9 C-13.67 8.01 -13.34 7.02 -13 6 C-11.28478222 4.95181136 -9.56532598 3.90588547 -7.7890625 2.96484375 C-2.29149798 0 -2.29149798 0 0 0 Z " fill="#793516" transform="translate(141,5)"/>
<path d="M0 0 C17.38831615 -0.6185567 17.38831615 -0.6185567 24 3 C24.99 3.99 25.98 4.98 27 6 C23.37 5.34 19.74 4.68 16 4 C16 3.34 16 2.68 16 2 C10.72 2 5.44 2 0 2 C0 1.34 0 0.68 0 0 Z " fill="#923E19" transform="translate(144,4)"/>
<path d="M0 0 C0.99 0 1.98 0 3 0 C3.66 3.3 4.32 6.6 5 10 C4.01 10.33 3.02 10.66 2 11 C1.67 12.65 1.34 14.3 1 16 C0.34 16 -0.32 16 -1 16 C-1.33 11.71 -1.66 7.42 -2 3 C-0.68 3.33 0.64 3.66 2 4 C2 3.34 2 2.68 2 2 C1.34 2 0.68 2 0 2 C0 1.34 0 0.68 0 0 Z " fill="#CD5721" transform="translate(116,48)"/>
<path d="M0 0 C1.4540625 0.0309375 1.4540625 0.0309375 2.9375 0.0625 C3.5975 2.0425 4.2575 4.0225 4.9375 6.0625 C3.9375 7.0625 3.9375 7.0625 2.08984375 7.16015625 C0.0390625 7.12760417 -2.01171875 7.09505208 -4.0625 7.0625 C-4.10504356 5.06295254 -4.10330783 3.06208364 -4.0625 1.0625 C-3.0625 0.0625 -3.0625 0.0625 0 0 Z " fill="#B7B4B1" transform="translate(161.0625,90.9375)"/>
<path d="M0 0 C0 0.66 0 1.32 0 2 C1.32 2.66 2.64 3.32 4 4 C2.80375 4.103125 1.6075 4.20625 0.375 4.3125 C-3.5624176 4.78891352 -6.54140375 6.01130716 -10 8 C-9.67 6.68 -9.34 5.36 -9 4 C-9.66 3.67 -10.32 3.34 -11 3 C-11 2.34 -11 1.68 -11 1 C-7.26562152 0.12132271 -3.83225427 -0.08912219 0 0 Z " fill="#913D18" transform="translate(39,82)"/>
<path d="M0 0 C2.64 0 5.28 0 8 0 C8 2.31 8 4.62 8 7 C5.39417629 7.93065133 4.35801776 8.14917407 1.75 7.0625 C1.1725 6.711875 0.595 6.36125 0 6 C0 4.02 0 2.04 0 0 Z " fill="#B2AAA4" transform="translate(95,91)"/>
<path d="M0 0 C1.98 0 3.96 0 6 0 C6.66 1.65 7.32 3.3 8 5 C6.8125 6.5625 6.8125 6.5625 5 8 C2.3125 7.6875 2.3125 7.6875 0 7 C0 4.69 0 2.38 0 0 Z " fill="#93908C" transform="translate(128,91)"/>
<path d="M0 0 C1.5 1.375 1.5 1.375 3 3 C3 3.66 3 4.32 3 5 C3.66 5 4.32 5 5 5 C5 5.99 5 6.98 5 8 C6.32 8.33 7.64 8.66 9 9 C8.67 9.99 8.34 10.98 8 12 C6.35 12.33 4.7 12.66 3 13 C3 12.34 3 11.68 3 11 C2.01 10.67 1.02 10.34 0 10 C-0.33 9.01 -0.66 8.02 -1 7 C-0.01 7 0.98 7 2 7 C1.67 6.401875 1.34 5.80375 1 5.1875 C0 3 0 3 0 0 Z " fill="#833714" transform="translate(32,101)"/>
<path d="M0 0 C1.65 0.33 3.3 0.66 5 1 C4.01 1.495 4.01 1.495 3 2 C3.02320313 2.61488281 3.04640625 3.22976562 3.0703125 3.86328125 C3.08835937 4.67152344 3.10640625 5.47976562 3.125 6.3125 C3.14820313 7.11300781 3.17140625 7.91351563 3.1953125 8.73828125 C3 11 3 11 1 14 C1 13.01 1 12.02 1 11 C0.34 11 -0.32 11 -1 11 C-2.0257259 6.58937864 -2.03684712 4.07369424 0 0 Z " fill="#B24B1C" transform="translate(26,85)"/>
<path d="M0 0 C1.67542976 0.28604898 3.34385343 0.61781233 5 1 C4.25 2.9375 4.25 2.9375 3 5 C0.875 5.75 0.875 5.75 -1 6 C-1 6.66 -1 7.32 -1 8 C-1.99 8 -2.98 8 -4 8 C-4.33 7.34 -4.66 6.68 -5 6 C-5.99 5.34 -6.98 4.68 -8 4 C-6.865625 3.525625 -5.73125 3.05125 -4.5625 2.5625 C-1.24259834 1.36377917 -1.24259834 1.36377917 0 0 Z " fill="#913E1C" transform="translate(192,80)"/>
<path d="M0 0 C1.22589844 0.01353516 1.22589844 0.01353516 2.4765625 0.02734375 C3.41628906 0.04474609 3.41628906 0.04474609 4.375 0.0625 C4.375 1.7125 4.375 3.3625 4.375 5.0625 C2.725 5.3925 1.075 5.7225 -0.625 6.0625 C-0.295 5.4025 0.035 4.7425 0.375 4.0625 C1.035 4.0625 1.695 4.0625 2.375 4.0625 C2.375 3.4025 2.375 2.7425 2.375 2.0625 C0.065 2.3925 -2.245 2.7225 -4.625 3.0625 C-4.955 4.7125 -5.285 6.3625 -5.625 8.0625 C-6.945 8.3925 -8.265 8.7225 -9.625 9.0625 C-8.99815423 6.13721973 -8.14195295 3.65024327 -6.625 1.0625 C-4.21954362 -0.14022819 -2.67503047 -0.03821472 0 0 Z " fill="#823618" transform="translate(185.625,75.9375)"/>
<path d="M0 0 C0.66 0.33 1.32 0.66 2 1 C2.05423638 2.91635217 2.09289963 4.83314925 2.125 6.75 C2.14820312 7.81734375 2.17140625 8.8846875 2.1953125 9.984375 C2.00487687 12.92470106 1.52670104 14.52361878 0 17 C0 16.01 0 15.02 0 14 C-0.66 14 -1.32 14 -2 14 C-2 10.7 -2 7.4 -2 4 C-1.34 4 -0.68 4 0 4 C0 2.68 0 1.36 0 0 Z " fill="#D65721" transform="translate(102,55)"/>
<path d="M0 0 C0.66 0 1.32 0 2 0 C2.33 4.62 2.66 9.24 3 14 C2.34 14 1.68 14 1 14 C1.33 15.98 1.66 17.96 2 20 C1.34 20 0.68 20 0 20 C-1.38226016 17.23547967 -1.09525387 14.9538637 -1.0625 11.875 C-1.05347656 10.77929688 -1.04445312 9.68359375 -1.03515625 8.5546875 C-1.02355469 7.71164063 -1.01195312 6.86859375 -1 6 C-0.34 6 0.32 6 1 6 C0.67 4.02 0.34 2.04 0 0 Z " fill="#A3461E" transform="translate(132,35)"/>
<path d="M0 0 C0 2.31 0 4.62 0 7 C-1.875 7.625 -1.875 7.625 -4 8 C-6 6 -6 6 -6.125 2.875 C-6.08375 1.92625 -6.0425 0.9775 -6 0 C-3.50907189 -1.24546405 -2.58919267 -0.7767578 0 0 Z " fill="#95908B" transform="translate(124,91)"/>
<path d="M0 0 C1.98 0 3.96 0 6 0 C6 2.31 6 4.62 6 7 C2.25 8.125 2.25 8.125 0 7 C0 4.69 0 2.38 0 0 Z " fill="#ADA9A7" transform="translate(107,91)"/>
<path d="M0 0 C1.65 0 3.3 0 5 0 C5 0.99 5 1.98 5 3 C4.01 3.495 4.01 3.495 3 4 C1.9458482 7.16245541 1.68724328 9.86948218 1.4375 13.1875 C1.35371094 14.27417969 1.26992187 15.36085938 1.18359375 16.48046875 C1.12300781 17.31191406 1.06242187 18.14335938 1 19 C0.34 19 -0.32 19 -1 19 C-0.67 12.73 -0.34 6.46 0 0 Z " fill="#943D18" transform="translate(71,26)"/>
<path d="M0 0 C1.46726798 3.81489674 0.43336419 6.29011622 -1 10 C-1.66 10 -2.32 10 -3 10 C-3 10.66 -3 11.32 -3 12 C-3.66 12 -4.32 12 -5 12 C-5 12.99 -5 13.98 -5 15 C-5.66 15 -6.32 15 -7 15 C-6.60350587 13.20376144 -6.18206548 11.41301565 -5.75 9.625 C-5.51796875 8.62726563 -5.2859375 7.62953125 -5.046875 6.6015625 C-4 4 -4 4 -1.890625 2.6484375 C-1.26671875 2.43445313 -0.6428125 2.22046875 0 2 C0 1.34 0 0.68 0 0 Z " fill="#C0501F" transform="translate(60,95)"/>
<path d="M0 0 C1.98 0 3.96 0 6 0 C5.95117188 3.07617188 5.95117188 3.07617188 5.90234375 6.15234375 C5.79438816 8.01732141 5.79438816 8.01732141 7 9 C7.33 7.35 7.66 5.7 8 4 C9.125 7.75 9.125 7.75 8 10 C6.68 10 5.36 10 4 10 C4 7.69 4 5.38 4 3 C3.21625 3.20625 2.4325 3.4125 1.625 3.625 C0.75875 3.74875 -0.1075 3.8725 -1 4 C-1.66 3.34 -2.32 2.68 -3 2 C-2.01 2 -1.02 2 0 2 C0 1.34 0 0.68 0 0 Z " fill="#572712" transform="translate(154,74)"/>
<path d="M0 0 C0.66 0 1.32 0 2 0 C2.33 2.31 2.66 4.62 3 7 C4.32 7.33 5.64 7.66 7 8 C7.33 9.65 7.66 11.3 8 13 C6.35 12.67 4.7 12.34 3 12 C2.67 11.01 2.34 10.02 2 9 C-0.00016466 7.79117904 -0.00016466 7.79117904 -2 7 C-1.01 6.67 -0.02 6.34 1 6 C0.67 4.02 0.34 2.04 0 0 Z " fill="#DA591F" transform="translate(103,72)"/>
<path d="M0 0 C0.66 0.33 1.32 0.66 2 1 C1.88570603 2.77155654 1.75816963 4.54226229 1.625 6.3125 C1.55539063 7.29863281 1.48578125 8.28476563 1.4140625 9.30078125 C1 12 1 12 -1 15 C-1 14.01 -1 13.02 -1 12 C-1.99 11.67 -2.98 11.34 -4 11 C-3.67 9.35 -3.34 7.7 -3 6 C-2.34 6 -1.68 6 -1 6 C-0.67 4.02 -0.34 2.04 0 0 Z " fill="#C4511F" transform="translate(90,72)"/>
<path d="M0 0 C2.97 0.495 2.97 0.495 6 1 C6 1.66 6 2.32 6 3 C5.34 3 4.68 3 4 3 C3.67 5.31 3.34 7.62 3 10 C2.34 10 1.68 10 1 10 C1 8.68 1 7.36 1 6 C0.01 6 -0.98 6 -2 6 C-2 5.34 -2 4.68 -2 4 C-1.34 4 -0.68 4 0 4 C0 2.68 0 1.36 0 0 Z " fill="#D4571F" transform="translate(134,78)"/>
<path d="M0 0 C0.66 1.32 1.32 2.64 2 4 C0.56260487 4.02712066 -0.87493863 4.04645067 -2.3125 4.0625 C-3.51326172 4.07990234 -3.51326172 4.07990234 -4.73828125 4.09765625 C-7 4 -7 4 -10 3 C-10 2.34 -10 1.68 -10 1 C-6.52674819 -0.1577506 -3.63932552 -0.06866652 0 0 Z " fill="#99421A" transform="translate(47,112)"/>
<path d="M0 0 C0 0.66 0 1.32 0 2 C0.99 2 1.98 2 3 2 C3 3.32 3 4.64 3 6 C1 6 -1 6 -3 6 C-3 5.34 -3 4.68 -3 4 C-5.475 3.01 -5.475 3.01 -8 2 C-8 1.67 -8 1.34 -8 1 C-2.25 0 -2.25 0 0 0 Z " fill="#703014" transform="translate(132,82)"/>
<path d="M0 0 C0.66 0.33 1.32 0.66 2 1 C2 7.6 2 14.2 2 21 C1.01 20.67 0.02 20.34 -1 20 C-0.9278125 19.14277344 -0.855625 18.28554688 -0.78125 17.40234375 C-0.30907298 11.58538524 0.13573649 5.83666909 0 0 Z " fill="#9B401A" transform="translate(185,29)"/>
<path d="M0 0 C1.98 0 3.96 0 6 0 C6 1.32 6 2.64 6 4 C5.34 4 4.68 4 4 4 C4 4.99 4 5.98 4 7 C2.68 7 1.36 7 0 7 C0 4.69 0 2.38 0 0 Z " fill="#696360" transform="translate(139,91)"/>
<path d="M0 0 C0.66 0 1.32 0 2 0 C2 1.32 2 2.64 2 4 C3.11375 3.95875 4.2275 3.9175 5.375 3.875 C9 4 9 4 11 6 C11.125 8.625 11.125 8.625 11 11 C10.34 10.67 9.68 10.34 9 10 C9 8.68 9 7.36 9 6 C6.03 6 3.06 6 0 6 C0 4.02 0 2.04 0 0 Z " fill="#6C3013" transform="translate(68,77)"/>
<path d="M0 0 C4.62609198 -0.3227506 7.28026121 0.15549386 11 3 C11 3.66 11 4.32 11 5 C9.68 4.67 8.36 4.34 7 4 C7.33 6.31 7.66 8.62 8 11 C5.4345406 8.4345406 5.45953913 6.52313332 5 3 C3.35 2.67 1.7 2.34 0 2 C0 1.34 0 0.68 0 0 Z " fill="#632B12" transform="translate(107,47)"/>
<path d="M0 0 C0.33 0 0.66 0 1 0 C1 2.31 1 4.62 1 7 C1.66 7.33 2.32 7.66 3 8 C2.34 8 1.68 8 1 8 C0.67 9.65 0.34 11.3 0 13 C-2.31 13 -4.62 13 -7 13 C-7 12.34 -7 11.68 -7 11 C-5.02 11 -3.04 11 -1 11 C-0.67 7.37 -0.34 3.74 0 0 Z " fill="#C6521E" transform="translate(77,68)"/>
<path d="M0 0 C1.32 0 2.64 0 4 0 C4 2.64 4 5.28 4 8 C2.35 7.67 0.7 7.34 -1 7 C-0.67 4.69 -0.34 2.38 0 0 Z " fill="#CF5720" transform="translate(163,77)"/>
<path d="M0 0 C2.31 0 4.62 0 7 0 C7 0.66 7 1.32 7 2 C4 4 4 4 1 4 C1 4.99 1 5.98 1 7 C0.01 6.67 -0.98 6.34 -2 6 C-1.34 4.02 -0.68 2.04 0 0 Z " fill="#D95A1F" transform="translate(181,78)"/>
<path d="M0 0 C0.66 0 1.32 0 2 0 C1.88637738 1.4800841 1.75877092 2.95910074 1.625 4.4375 C1.55539063 5.26121094 1.48578125 6.08492188 1.4140625 6.93359375 C1.27742188 7.61550781 1.14078125 8.29742187 1 9 C0.01 9.495 0.01 9.495 -1 10 C-1.33 9.01 -1.66 8.02 -2 7 C-2.66 7.66 -3.32 8.32 -4 9 C-4 6.36 -4 3.72 -4 1 C-3.34 1 -2.68 1 -2 1 C-1.67 1.99 -1.34 2.98 -1 4 C-0.67 2.68 -0.34 1.36 0 0 Z " fill="#823A16" transform="translate(93,66)"/>
<path d="M0 0 C1.98 0 3.96 0 6 0 C6.33 0.66 6.66 1.32 7 2 C10.02934491 2.65772428 10.02934491 2.65772428 13 3 C11 5 11 5 7.875 5.125 C6.92625 5.08375 5.9775 5.0425 5 5 C4.67 4.34 4.34 3.68 4 3 C1.47266765 2.34444881 1.47266765 2.34444881 -1 2 C-0.67 1.34 -0.34 0.68 0 0 Z " fill="#612A0F" transform="translate(45,80)"/>
<path d="M0 0 C0.66 0 1.32 0 2 0 C2.35233161 5.37305699 2.35233161 5.37305699 2 8 C0 10 0 10 -2 11 C-2 8.36 -2 5.72 -2 3 C-1.34 3 -0.68 3 0 3 C0 2.01 0 1.02 0 0 Z " fill="#783214" transform="translate(73,57)"/>
<path d="M0 0 C3.59309034 1.19769678 4.42093253 2.4676789 6.6875 5.4375 C7.31011719 6.24058594 7.93273437 7.04367188 8.57421875 7.87109375 C10 10 10 10 10 12 C9.34 12 8.68 12 8 12 C7.67 11.01 7.34 10.02 7 9 C4.75127164 7.03957015 2.67191034 5.33595517 0 4 C0 2.68 0 1.36 0 0 Z " fill="#893917" transform="translate(172,10)"/>
<path d="M0 0 C1.32 0 2.64 0 4 0 C4 2.31 4 4.62 4 7 C2.68 6.67 1.36 6.34 0 6 C0 4.02 0 2.04 0 0 Z " fill="#94908C" transform="translate(95,91)"/>
<path d="M0 0 C0.66 0 1.32 0 2 0 C0.60846256 4.42761914 -1.52071486 6.9556255 -5 10 C-5.66 10 -6.32 10 -7 10 C-7 9.34 -7 8.68 -7 8 C-6.34 8 -5.68 8 -5 8 C-5 7.01 -5 6.02 -5 5 C-4.01 5 -3.02 5 -2 5 C-2 4.01 -2 3.02 -2 2 C-1.34 2 -0.68 2 0 2 C0 1.34 0 0.68 0 0 Z " fill="#7E3614" transform="translate(57,105)"/>
<path d="M0 0 C0 1.65 0 3.3 0 5 C0.66 5 1.32 5 2 5 C2 5.66 2 6.32 2 7 C-0.97 6.505 -0.97 6.505 -4 6 C-4 4.35 -4 2.7 -4 1 C-2 0 -2 0 0 0 Z " fill="#D75820" transform="translate(150,80)"/>
<path d="M0 0 C0.66 0 1.32 0 2 0 C2.33 1.65 2.66 3.3 3 5 C3.99 5.33 4.98 5.66 6 6 C5.67 6.66 5.34 7.32 5 8 C3.02 7.34 1.04 6.68 -1 6 C-0.67 4.02 -0.34 2.04 0 0 Z " fill="#D55721" transform="translate(97,80)"/>
<path d="M0 0 C0.33 0 0.66 0 1 0 C1 3.96 1 7.92 1 12 C0.01 12 -0.98 12 -2 12 C-2.33 12.99 -2.66 13.98 -3 15 C-3.33 13.35 -3.66 11.7 -4 10 C-3.01 10 -2.02 10 -1 10 C-1.33 8.68 -1.66 7.36 -2 6 C-1.34 6 -0.68 6 0 6 C0 4.02 0 2.04 0 0 Z " fill="#D9591F" transform="translate(66,75)"/>
<path d="M0 0 C0.99 0 1.98 0 3 0 C3.66 3.3 4.32 6.6 5 10 C1 8 1 8 0.25 5.875 C0.1675 5.25625 0.085 4.6375 0 4 C0.66 4 1.32 4 2 4 C2 3.34 2 2.68 2 2 C1.34 2 0.68 2 0 2 C0 1.34 0 0.68 0 0 Z " fill="#A0451C" transform="translate(116,48)"/>
<path d="M0 0 C1.32 0.33 2.64 0.66 4 1 C3.01 1.66 2.02 2.32 1 3 C-0.07136051 5.30144109 -1.07989717 7.6340213 -2 10 C-2.66 10 -3.32 10 -4 10 C-3.67 8.02 -3.34 6.04 -3 4 C-2.34 4 -1.68 4 -1 4 C-0.67 2.68 -0.34 1.36 0 0 Z " fill="#8F4018" transform="translate(157,32)"/>
<path d="M0 0 C0.99 0.33 1.98 0.66 3 1 C-1.43076923 6.78461538 -1.43076923 6.78461538 -4.3125 7.875 C-4.869375 7.91625 -5.42625 7.9575 -6 8 C-5.66354211 4.85972637 -4.94763914 3.94901705 -2.625 1.6875 C-1.75875 1.130625 -0.8925 0.57375 0 0 Z " fill="#A84319" transform="translate(127,13)"/>
<path d="M0 0 C0.33 0.66 0.66 1.32 1 2 C0.67 2.66 0.34 3.32 0 4 C-0.99 4 -1.98 4 -3 4 C-3 4.66 -3 5.32 -3 6 C-2.34 6 -1.68 6 -1 6 C-1 6.66 -1 7.32 -1 8 C-1.99 8 -2.98 8 -4 8 C-4.33 7.34 -4.66 6.68 -5 6 C-5.99 5.34 -6.98 4.68 -8 4 C-6.865625 3.525625 -5.73125 3.05125 -4.5625 2.5625 C-1.24259834 1.36377917 -1.24259834 1.36377917 0 0 Z " fill="#662B10" transform="translate(192,80)"/>
<path d="M0 0 C1.67542976 0.28604898 3.34385343 0.61781233 5 1 C5 1.66 5 2.32 5 3 C4.01 3 3.02 3 2 3 C2 3.66 2 4.32 2 5 C0.68 5 -0.64 5 -2 5 C-1.125 1.125 -1.125 1.125 0 0 Z " fill="#CE5622" transform="translate(124,76)"/>
<path d="M0 0 C0 0.66 0 1.32 0 2 C-2.31 2 -4.62 2 -7 2 C-7 2.66 -7 3.32 -7 4 C-8.65 4 -10.3 4 -12 4 C-12.33 3.01 -12.66 2.02 -13 1 C-11.20843648 0.83222817 -9.4167455 0.66581706 -7.625 0.5 C-6.62726563 0.4071875 -5.62953125 0.314375 -4.6015625 0.21875 C-2 0 -2 0 0 0 Z " fill="#CB5623" transform="translate(161,72)"/>
<path d="M0 0 C0.33 0 0.66 0 1 0 C1 2.64 1 5.28 1 8 C2.65 8 4.3 8 6 8 C6.33 8.99 6.66 9.98 7 11 C4.625 11.125 4.625 11.125 2 11 C0 9 0 9 -0.1953125 6.8359375 C-0.17210937 6.02382812 -0.14890625 5.21171875 -0.125 4.375 C-0.10695312 3.55773437 -0.08890625 2.74046875 -0.0703125 1.8984375 C-0.04710937 1.27195312 -0.02390625 0.64546875 0 0 Z " fill="#A1441A" transform="translate(142,65)"/>
<path d="M0 0 C0 1.98 0 3.96 0 6 C-1.65 6 -3.3 6 -5 6 C-4.625 3.5625 -4.625 3.5625 -4 1 C-2 0 -2 0 0 0 Z " fill="#D5D1CF" transform="translate(174,93)"/>
<path d="M0 0 C0.33 0 0.66 0 1 0 C1 1.65 1 3.3 1 5 C1.66 5.33 2.32 5.66 3 6 C2.34 6 1.68 6 1 6 C1 7.65 1 9.3 1 11 C0.34 10.67 -0.32 10.34 -1 10 C-1 9.01 -1 8.02 -1 7 C-1.66 6.67 -2.32 6.34 -3 6 C-2.34 6 -1.68 6 -1 6 C-1.0309375 4.7934375 -1.0309375 4.7934375 -1.0625 3.5625 C-1 1 -1 1 0 0 Z " fill="#A3451C" transform="translate(92,60)"/>
<path d="M0 0 C1.4540625 0.0309375 1.4540625 0.0309375 2.9375 0.0625 C2.9375 0.7225 2.9375 1.3825 2.9375 2.0625 C1.2875 2.0625 -0.3625 2.0625 -2.0625 2.0625 C-2.0625 3.7125 -2.0625 5.3625 -2.0625 7.0625 C-2.7225 7.0625 -3.3825 7.0625 -4.0625 7.0625 C-4.10504356 5.06295254 -4.10330783 3.06208364 -4.0625 1.0625 C-3.0625 0.0625 -3.0625 0.0625 0 0 Z " fill="#5B5956" transform="translate(161.0625,90.9375)"/>
<path d="M0 0 C1.2065625 0.0309375 1.2065625 0.0309375 2.4375 0.0625 C2.7675 1.0525 3.0975 2.0425 3.4375 3.0625 C2.7775 3.0625 2.1175 3.0625 1.4375 3.0625 C1.1075 5.0425 0.7775 7.0225 0.4375 9.0625 C0.1075 9.0625 -0.2225 9.0625 -0.5625 9.0625 C-0.2325 6.7525 0.0975 4.4425 0.4375 2.0625 C-0.8825 1.7325 -2.2025 1.4025 -3.5625 1.0625 C-2.5625 0.0625 -2.5625 0.0625 0 0 Z " fill="#893D1B" transform="translate(91.5625,48.9375)"/>
<path d="M0 0 C1.42944945 2.35438733 2.08661261 3.48032433 1.625 6.25 C1.41875 6.8275 1.2125 7.405 1 8 C-0.98 8 -2.96 8 -5 8 C-5 7.34 -5 6.68 -5 6 C-3.35 6 -1.7 6 0 6 C0 4.02 0 2.04 0 0 Z " fill="#77736F" transform="translate(174,93)"/>
<path d="M0 0 C0.99 0 1.98 0 3 0 C3 0.66 3 1.32 3 2 C4.32 2.66 5.64 3.32 7 4 C5.02 4.99 3.04 5.98 1 7 C1.33 5.68 1.66 4.36 2 3 C1.34 2.67 0.68 2.34 0 2 C0 1.34 0 0.68 0 0 Z " fill="#612C11" transform="translate(28,83)"/>
<path d="M0 0 C1.875 0.1875 1.875 0.1875 4 1 C5.125 3.5 5.125 3.5 6 6 C6.66 6.33 7.32 6.66 8 7 C7.67 7.66 7.34 8.32 7 9 C4.03595495 6.19195732 1.55500981 3.81684226 0 0 Z " fill="#733213" transform="translate(121,59)"/>
<path d="M0 0 C0.33 0.66 0.66 1.32 1 2 C1.66 2 2.32 2 3 2 C3.66 4.31 4.32 6.62 5 9 C4.01 9 3.02 9 2 9 C1.34 6.03 0.68 3.06 0 0 Z " fill="#CE561F" transform="translate(29,99)"/>
<path d="M0 0 C0.66 0 1.32 0 2 0 C2.309375 0.639375 2.61875 1.27875 2.9375 1.9375 C3.8345163 3.93610821 3.8345163 3.93610821 5 5 C5.04063832 6.66617115 5.042721 8.33388095 5 10 C4.34 10 3.68 10 3 10 C3 9.01 3 8.02 3 7 C2.34 7 1.68 7 1 7 C0.67 4.69 0.34 2.38 0 0 Z " fill="#CE561F" transform="translate(78,82)"/>
<path d="M0 0 C2.03833424 1.2739589 4.03852126 2.61061923 6 4 C6 4.66 6 5.32 6 6 C0.25 5.25 0.25 5.25 -2 3 C-1.34 3 -0.68 3 0 3 C0 2.01 0 1.02 0 0 Z " fill="#CB551F" transform="translate(123,82)"/>
<path d="M0 0 C1.32 0.33 2.64 0.66 4 1 C4 1.66 4 2.32 4 3 C4.99 3 5.98 3 7 3 C6.67 4.32 6.34 5.64 6 7 C5.67 6.34 5.34 5.68 5 5 C4.34 5 3.68 5 3 5 C1.375 3.625 1.375 3.625 0 2 C0 1.34 0 0.68 0 0 Z " fill="#743713" transform="translate(135,55)"/>
<path d="M0 0 C0.33 1.32 0.66 2.64 1 4 C-1.31 4.66 -3.62 5.32 -6 6 C-4.75453595 2.26360784 -3.36595047 1.81243487 0 0 Z " fill="#81381A" transform="translate(169,52)"/>
<path d="M0 0 C1.42944945 2.35438733 2.08661261 3.48032433 1.625 6.25 C1.41875 6.8275 1.2125 7.405 1 8 C0.01 8 -0.98 8 -2 8 C-1.47731534 5.23723823 -0.89130413 2.6739124 0 0 Z " fill="#853916" transform="translate(118,24)"/>
<path d="M0 0 C0.99 0 1.98 0 3 0 C3 1.98 3 3.96 3 6 C2.01 6 1.02 6 0 6 C0 4.02 0 2.04 0 0 Z " fill="#D1CDC8" transform="translate(149,92)"/>
<path d="M0 0 C0.66 0 1.32 0 2 0 C2.33 2.64 2.66 5.28 3 8 C2.01 8 1.02 8 0 8 C0 5.36 0 2.72 0 0 Z " fill="#D9581F" transform="translate(174,81)"/>
<path d="M0 0 C0.66 0 1.32 0 2 0 C2 1.32 2 2.64 2 4 C0.35 4 -1.3 4 -3 4 C-3.33 3.01 -3.66 2.02 -4 1 C-2.68 1.33 -1.36 1.66 0 2 C0 1.34 0 0.68 0 0 Z " fill="#5C2A12" transform="translate(86,97)"/>
<path d="M0 0 C0.99 0 1.98 0 3 0 C3 1.65 3 3.3 3 5 C1.68 5 0.36 5 -1 5 C-0.67 3.35 -0.34 1.7 0 0 Z " fill="#B5B2B1" transform="translate(140,93)"/>
<path d="M0 0 C0.66 0 1.32 0 2 0 C2 1.98 2 3.96 2 6 C2.66 6.33 3.32 6.66 4 7 C2.35 6.67 0.7 6.34 -1 6 C-0.67 4.02 -0.34 2.04 0 0 Z " fill="#DF5A1F" transform="translate(155,78)"/>
<path d="M0 0 C1.98 0 3.96 0 6 0 C6.33 1.65 6.66 3.3 7 5 C6.01 5 5.02 5 4 5 C4 3.68 4 2.36 4 1 C2.68 0.67 1.36 0.34 0 0 Z " fill="#AF4A1D" transform="translate(58,80)"/>
<path d="" fill="#000000" transform="translate(0,0)"/>
</svg>
